<svg xmlns="http://www.w3.org/2000/svg" viewBox="0 0 64 64">
  <defs>
    <linearGradient id="bg" x1="0%" y1="0%" x2="100%" y2="100%">
      <stop offset="0%" stop-color="#0f2547"/>
      <stop offset="100%" stop-color="#1a3a6e"/>
    </linearGradient>
    <linearGradient id="gd" x1="0%" y1="0%" x2="100%" y2="100%">
      <stop offset="0%" stop-color="#f5c842"/>
      <stop offset="100%" stop-color="#c97f10"/>
    </linearGradient>
    <linearGradient id="bl" x1="0%" y1="100%" x2="0%" y2="0%">
      <stop offset="0%" stop-color="#3b82c4"/>
      <stop offset="100%" stop-color="#6aafe6"/>
    </linearGradient>
  </defs>
  <rect width="64" height="64" rx="12" fill="url(#bg)"/>
  <!-- Sun -->
  <circle cx="32" cy="17" r="5" fill="url(#gd)"/>
  <g stroke="url(#gd)" stroke-width="1.5" stroke-linecap="round">
    <line x1="32" y1="7"  x2="32" y2="10"/>
    <line x1="32" y1="24" x2="32" y2="27"/>
    <line x1="22" y1="17" x2="25" y2="17"/>
    <line x1="39" y1="17" x2="42" y2="17"/>
    <line x1="25" y1="10" x2="27" y2="12"/>
    <line x1="37" y1="22" x2="39" y2="24"/>
    <line x1="39" y1="10" x2="37" y2="12"/>
    <line x1="25" y1="22" x2="27" y2="24"/>
  </g>
  <!-- Gold arch -->
  <path d="M 9 46 C 9 28, 20 22, 32 25 C 44 22, 55 28, 55 46"
        fill="none" stroke="url(#gd)" stroke-width="4" stroke-linecap="round"/>
  <!-- Blue arch -->
  <path d="M 16 48 C 16 34, 24 29, 32 31 C 40 29, 48 34, 48 48"
        fill="none" stroke="url(#bl)" stroke-width="3" stroke-linecap="round"/>
  <!-- Hands -->
  <path d="M 32 43 C 29 38, 25 35, 22 33 C 19 31, 20 27, 23 28 C 26 29, 29 33, 31 36 C 31 31, 28 27, 25 25 C 22 23, 22 19, 25 20 C 28 21, 31 27, 32 31 Z"
        fill="url(#gd)" opacity="0.95"/>
  <path d="M 32 43 C 35 38, 39 35, 42 33 C 45 31, 44 27, 41 28 C 38 29, 35 33, 33 36 C 33 31, 36 27, 39 25 C 42 23, 42 19, 39 20 C 36 21, 33 27, 32 31 Z"
        fill="url(#bl)" opacity="0.95"/>
  <ellipse cx="32" cy="44" rx="3.5" ry="2" fill="url(#gd)" opacity="0.9"/>
</svg>